<mxfile host="app.diagrams.net" modified="2022-08-03T05:26:19.437Z" agent="5.0 (Windows NT 10.0; Win64; x64) AppleWebKit/537.36 (KHTML, like Gecko) Chrome/103.0.5060.134 Safari/537.36" etag="CPTfV3a-b1lFU_z7QDXE" version="20.2.2" type="github">
  <diagram id="2K0YEEOZ1l51ox7jcc1k" name="Page-1">
    <mxGraphModel dx="2179" dy="1021" grid="0" gridSize="10" guides="1" tooltips="1" connect="1" arrows="1" fold="1" page="1" pageScale="1" pageWidth="550" pageHeight="383" background="#FFFFFF" math="0" shadow="1">
      <root>
        <mxCell id="0" />
        <mxCell id="1" parent="0" />
        <mxCell id="SISaF7dtmsZQxDDT0848-29" value="" style="sketch=0;outlineConnect=0;fontColor=#232F3E;gradientColor=none;fillColor=#4D27AA;strokeColor=none;dashed=0;verticalLabelPosition=bottom;verticalAlign=top;align=center;html=1;fontSize=12;fontStyle=0;aspect=fixed;pointerEvents=1;shape=mxgraph.aws4.internet_gateway;labelBackgroundColor=none;labelBorderColor=none;" parent="1" vertex="1">
          <mxGeometry x="380" y="592" width="78" height="78" as="geometry" />
        </mxCell>
        <mxCell id="SISaF7dtmsZQxDDT0848-30" value="" style="sketch=0;outlineConnect=0;fontColor=#232F3E;gradientColor=none;fillColor=#232F3D;strokeColor=none;dashed=0;verticalLabelPosition=bottom;verticalAlign=top;align=center;html=1;fontSize=12;fontStyle=0;aspect=fixed;pointerEvents=1;shape=mxgraph.aws4.internet;labelBackgroundColor=none;labelBorderColor=none;" parent="1" vertex="1">
          <mxGeometry x="70" y="607" width="78" height="48" as="geometry" />
        </mxCell>
        <mxCell id="SISaF7dtmsZQxDDT0848-38" value="" style="group" parent="1" vertex="1" connectable="0">
          <mxGeometry x="423" y="203" width="1175" height="895" as="geometry" />
        </mxCell>
        <mxCell id="SISaF7dtmsZQxDDT0848-8" value="AZ ap-south-1b" style="fillColor=none;strokeColor=#147EBA;dashed=1;verticalAlign=top;fontStyle=0;fontColor=#147EBA;" parent="SISaF7dtmsZQxDDT0848-38" vertex="1">
          <mxGeometry x="130" y="463" width="643" height="321" as="geometry" />
        </mxCell>
        <mxCell id="SISaF7dtmsZQxDDT0848-16" value="Subnet Group" style="fillColor=#ffe6cc;strokeColor=#d79b00;dashed=1;verticalAlign=middle;fontStyle=1;fontSize=14;labelBorderColor=default;labelBackgroundColor=none;strokeWidth=2;" parent="SISaF7dtmsZQxDDT0848-38" vertex="1">
          <mxGeometry x="467" y="150" width="282" height="598" as="geometry" />
        </mxCell>
        <mxCell id="Ib_drEK7eYLLQow4bi6I-1" value="AWS Cloud" style="points=[[0,0],[0.25,0],[0.5,0],[0.75,0],[1,0],[1,0.25],[1,0.5],[1,0.75],[1,1],[0.75,1],[0.5,1],[0.25,1],[0,1],[0,0.75],[0,0.5],[0,0.25]];outlineConnect=0;gradientColor=none;html=1;whiteSpace=wrap;fontSize=12;fontStyle=0;container=1;pointerEvents=0;collapsible=0;recursiveResize=0;shape=mxgraph.aws4.group;grIcon=mxgraph.aws4.group_aws_cloud_alt;strokeColor=#232F3E;fillColor=none;verticalAlign=top;align=left;spacingLeft=30;fontColor=#232F3E;dashed=0;" parent="SISaF7dtmsZQxDDT0848-38" vertex="1">
          <mxGeometry width="1175" height="895" as="geometry" />
        </mxCell>
        <mxCell id="SISaF7dtmsZQxDDT0848-35" value="" style="group;labelBorderColor=default;strokeColor=default;dashed=1;" parent="Ib_drEK7eYLLQow4bi6I-1" vertex="1" connectable="0">
          <mxGeometry x="844.0025346673989" y="51.90077319587629" width="294.9556193794192" height="447.5" as="geometry" />
        </mxCell>
        <mxCell id="Ib_drEK7eYLLQow4bi6I-46" value="AWS KMS" style="text;html=1;align=center;verticalAlign=middle;resizable=0;points=[];autosize=1;strokeColor=none;fillColor=none;fontFamily=Helvetica;fontSize=12;fontStyle=1" parent="SISaF7dtmsZQxDDT0848-35" vertex="1">
          <mxGeometry x="26.03283092669085" y="407.3397435897436" width="75" height="26" as="geometry" />
        </mxCell>
        <mxCell id="SISaF7dtmsZQxDDT0848-1" value="" style="group" parent="SISaF7dtmsZQxDDT0848-35" vertex="1" connectable="0">
          <mxGeometry width="294.9556193794192" height="398.7339743589744" as="geometry" />
        </mxCell>
        <mxCell id="Ib_drEK7eYLLQow4bi6I-13" value="" style="sketch=0;points=[[0,0,0],[0.25,0,0],[0.5,0,0],[0.75,0,0],[1,0,0],[0,1,0],[0.25,1,0],[0.5,1,0],[0.75,1,0],[1,1,0],[0,0.25,0],[0,0.5,0],[0,0.75,0],[1,0.25,0],[1,0.5,0],[1,0.75,0]];outlineConnect=0;fontColor=#232F3E;gradientColor=#F78E04;gradientDirection=north;fillColor=#D05C17;strokeColor=#ffffff;dashed=0;verticalLabelPosition=bottom;verticalAlign=top;align=center;html=1;fontSize=12;fontStyle=0;aspect=fixed;shape=mxgraph.aws4.resourceIcon;resIcon=mxgraph.aws4.lambda;" parent="SISaF7dtmsZQxDDT0848-1" vertex="1">
          <mxGeometry x="173.827178354271" y="177.21509971509974" width="44.42260438358768" height="44.42260438358768" as="geometry" />
        </mxCell>
        <mxCell id="Ib_drEK7eYLLQow4bi6I-51" style="edgeStyle=orthogonalEdgeStyle;rounded=0;orthogonalLoop=1;jettySize=auto;html=1;entryX=0.5;entryY=1;entryDx=0;entryDy=0;entryPerimeter=0;strokeColor=#000000;" parent="SISaF7dtmsZQxDDT0848-1" source="Ib_drEK7eYLLQow4bi6I-14" target="Ib_drEK7eYLLQow4bi6I-13" edge="1">
          <mxGeometry relative="1" as="geometry" />
        </mxCell>
        <mxCell id="Ib_drEK7eYLLQow4bi6I-14" value="" style="sketch=0;points=[[0,0,0],[0.25,0,0],[0.5,0,0],[0.75,0,0],[1,0,0],[0,1,0],[0.25,1,0],[0.5,1,0],[0.75,1,0],[1,1,0],[0,0.25,0],[0,0.5,0],[0,0.75,0],[1,0.25,0],[1,0.5,0],[1,0.75,0]];outlineConnect=0;fontColor=#232F3E;gradientColor=#F54749;gradientDirection=north;fillColor=#C7131F;strokeColor=#ffffff;dashed=0;verticalLabelPosition=bottom;verticalAlign=top;align=center;html=1;fontSize=12;fontStyle=0;aspect=fixed;shape=mxgraph.aws4.resourceIcon;resIcon=mxgraph.aws4.key_management_service;" parent="SISaF7dtmsZQxDDT0848-1" vertex="1">
          <mxGeometry x="38.15718549240095" y="321.20236823361824" width="44.42260438358768" height="44.42260438358768" as="geometry" />
        </mxCell>
        <mxCell id="Ib_drEK7eYLLQow4bi6I-15" value="" style="sketch=0;points=[[0,0,0],[0.25,0,0],[0.5,0,0],[0.75,0,0],[1,0,0],[0,1,0],[0.25,1,0],[0.5,1,0],[0.75,1,0],[1,1,0],[0,0.25,0],[0,0.5,0],[0,0.75,0],[1,0.25,0],[1,0.5,0],[1,0.75,0]];outlineConnect=0;fontColor=#232F3E;gradientColor=#4D72F3;gradientDirection=north;fillColor=#3334B9;strokeColor=#ffffff;dashed=0;verticalLabelPosition=bottom;verticalAlign=top;align=center;html=1;fontSize=12;fontStyle=0;aspect=fixed;shape=mxgraph.aws4.resourceIcon;resIcon=mxgraph.aws4.dynamodb;" parent="SISaF7dtmsZQxDDT0848-1" vertex="1">
          <mxGeometry x="173.827178354271" width="44.42260438358768" height="44.42260438358768" as="geometry" />
        </mxCell>
        <mxCell id="Ib_drEK7eYLLQow4bi6I-16" value="" style="sketch=0;points=[[0,0,0],[0.25,0,0],[0.5,0,0],[0.75,0,0],[1,0,0],[0,1,0],[0.25,1,0],[0.5,1,0],[0.75,1,0],[1,1,0],[0,0.25,0],[0,0.5,0],[0,0.75,0],[1,0.25,0],[1,0.5,0],[1,0.75,0]];points=[[0,0,0],[0.25,0,0],[0.5,0,0],[0.75,0,0],[1,0,0],[0,1,0],[0.25,1,0],[0.5,1,0],[0.75,1,0],[1,1,0],[0,0.25,0],[0,0.5,0],[0,0.75,0],[1,0.25,0],[1,0.5,0],[1,0.75,0]];outlineConnect=0;fontColor=#232F3E;gradientColor=#F34482;gradientDirection=north;fillColor=#BC1356;strokeColor=#ffffff;dashed=0;verticalLabelPosition=bottom;verticalAlign=top;align=center;html=1;fontSize=12;fontStyle=0;aspect=fixed;shape=mxgraph.aws4.resourceIcon;resIcon=mxgraph.aws4.cloudwatch_2;" parent="SISaF7dtmsZQxDDT0848-1" vertex="1">
          <mxGeometry x="38.15718549240095" y="177.21509971509974" width="44.42260438358768" height="44.42260438358768" as="geometry" />
        </mxCell>
        <mxCell id="Ib_drEK7eYLLQow4bi6I-21" value="" style="edgeStyle=orthogonalEdgeStyle;html=1;endArrow=none;elbow=vertical;startArrow=block;startFill=1;strokeColor=#000000;rounded=0;" parent="SISaF7dtmsZQxDDT0848-1" edge="1">
          <mxGeometry width="100" relative="1" as="geometry">
            <mxPoint x="97.5128073694691" y="243.67076210826207" as="sourcePoint" />
            <mxPoint x="173.827178354271" y="243.67076210826207" as="targetPoint" />
          </mxGeometry>
        </mxCell>
        <mxCell id="Ib_drEK7eYLLQow4bi6I-22" value="" style="edgeStyle=orthogonalEdgeStyle;html=1;endArrow=block;elbow=vertical;startArrow=none;endFill=1;strokeColor=#000000;rounded=0;" parent="SISaF7dtmsZQxDDT0848-1" edge="1">
          <mxGeometry width="100" relative="1" as="geometry">
            <mxPoint x="97.5128073694691" y="210.4429309116809" as="sourcePoint" />
            <mxPoint x="173.827178354271" y="210.4429309116809" as="targetPoint" />
          </mxGeometry>
        </mxCell>
        <mxCell id="Ib_drEK7eYLLQow4bi6I-35" value="Amazon CloudWatch" style="text;html=1;align=center;verticalAlign=middle;resizable=0;points=[];autosize=1;strokeColor=none;fillColor=none;fontFamily=Helvetica;fontSize=12;fontStyle=1" parent="SISaF7dtmsZQxDDT0848-1" vertex="1">
          <mxGeometry x="12.450484356243448" y="268.69123931623926" width="138" height="26" as="geometry" />
        </mxCell>
        <mxCell id="Ib_drEK7eYLLQow4bi6I-47" value="AWS Lambda" style="text;html=1;align=center;verticalAlign=middle;resizable=0;points=[];autosize=1;strokeColor=none;fillColor=none;fontSize=12;fontStyle=1" parent="SISaF7dtmsZQxDDT0848-1" vertex="1">
          <mxGeometry x="161.68363968323544" y="268.69123931623926" width="95" height="26" as="geometry" />
        </mxCell>
        <mxCell id="Ib_drEK7eYLLQow4bi6I-49" value="Amazon DynamoDB" style="text;html=1;align=center;verticalAlign=middle;resizable=0;points=[];autosize=1;strokeColor=none;fillColor=none;fontSize=12;fontStyle=1" parent="SISaF7dtmsZQxDDT0848-1" vertex="1">
          <mxGeometry x="144.41794489029382" y="102.55208333333334" width="133" height="26" as="geometry" />
        </mxCell>
        <mxCell id="Ib_drEK7eYLLQow4bi6I-23" value="" style="edgeStyle=orthogonalEdgeStyle;rounded=0;orthogonalLoop=1;jettySize=auto;html=1;strokeColor=#000000;" parent="SISaF7dtmsZQxDDT0848-1" source="Ib_drEK7eYLLQow4bi6I-13" target="Ib_drEK7eYLLQow4bi6I-15" edge="1">
          <mxGeometry relative="1" as="geometry" />
        </mxCell>
        <mxCell id="SISaF7dtmsZQxDDT0848-132" value="" style="edgeStyle=orthogonalEdgeStyle;html=1;endArrow=open;elbow=vertical;startArrow=open;startFill=0;endFill=0;strokeColor=#000000;rounded=0;fontSize=17;fontColor=#000000;strokeWidth=2;" parent="Ib_drEK7eYLLQow4bi6I-1" target="SISaF7dtmsZQxDDT0848-32" edge="1">
          <mxGeometry width="100" relative="1" as="geometry">
            <mxPoint x="38" y="435" as="sourcePoint" />
            <mxPoint x="138" y="435" as="targetPoint" />
          </mxGeometry>
        </mxCell>
        <mxCell id="Ib_drEK7eYLLQow4bi6I-2" value="Mumbai Region" style="points=[[0,0],[0.25,0],[0.5,0],[0.75,0],[1,0],[1,0.25],[1,0.5],[1,0.75],[1,1],[0.75,1],[0.5,1],[0.25,1],[0,1],[0,0.75],[0,0.5],[0,0.25]];outlineConnect=0;gradientColor=none;html=1;whiteSpace=wrap;fontSize=12;fontStyle=0;container=1;pointerEvents=0;collapsible=0;recursiveResize=0;shape=mxgraph.aws4.group;grIcon=mxgraph.aws4.group_region;strokeColor=#147EBA;fillColor=none;verticalAlign=top;align=left;spacingLeft=30;fontColor=#147EBA;dashed=1;" parent="SISaF7dtmsZQxDDT0848-38" vertex="1">
          <mxGeometry x="58" y="37" width="769" height="829" as="geometry" />
        </mxCell>
        <mxCell id="SISaF7dtmsZQxDDT0848-9" value="" style="group" parent="Ib_drEK7eYLLQow4bi6I-2" vertex="1" connectable="0">
          <mxGeometry x="138" y="469" width="218" height="220" as="geometry" />
        </mxCell>
        <mxCell id="SISaF7dtmsZQxDDT0848-10" value="Public subnet" style="points=[[0,0],[0.25,0],[0.5,0],[0.75,0],[1,0],[1,0.25],[1,0.5],[1,0.75],[1,1],[0.75,1],[0.5,1],[0.25,1],[0,1],[0,0.75],[0,0.5],[0,0.25]];outlineConnect=0;gradientColor=none;html=1;whiteSpace=wrap;fontSize=12;fontStyle=0;container=1;pointerEvents=0;collapsible=0;recursiveResize=0;shape=mxgraph.aws4.group;grIcon=mxgraph.aws4.group_security_group;grStroke=0;strokeColor=#248814;fillColor=#E9F3E6;verticalAlign=top;align=left;spacingLeft=30;fontColor=#248814;dashed=0;" parent="SISaF7dtmsZQxDDT0848-9" vertex="1">
          <mxGeometry width="218.00000000000006" height="219.8434163701068" as="geometry" />
        </mxCell>
        <mxCell id="6UI8LHnn-1G5Px1je7Ly-9" value="&lt;span style=&quot;color: rgb(22, 25, 31); font-family: &amp;quot;Amazon Ember&amp;quot;, &amp;quot;Helvetica Neue&amp;quot;, Roboto, Arial, sans-serif; font-size: 14px; text-align: start; background-color: rgb(241, 250, 255); user-select: auto;&quot;&gt;10.0.16.0/20&lt;/span&gt;" style="text;html=1;resizable=0;autosize=1;align=center;verticalAlign=middle;points=[];fillColor=none;strokeColor=none;rounded=0;" parent="SISaF7dtmsZQxDDT0848-9" vertex="1">
          <mxGeometry x="1.950023154644993" y="188.5713647692848" width="98" height="29" as="geometry" />
        </mxCell>
        <mxCell id="6UI8LHnn-1G5Px1je7Ly-1" value="" style="sketch=0;points=[[0,0,0],[0.25,0,0],[0.5,0,0],[0.75,0,0],[1,0,0],[0,1,0],[0.25,1,0],[0.5,1,0],[0.75,1,0],[1,1,0],[0,0.25,0],[0,0.5,0],[0,0.75,0],[1,0.25,0],[1,0.5,0],[1,0.75,0]];outlineConnect=0;fontColor=#232F3E;gradientColor=#F78E04;gradientDirection=north;fillColor=#D05C17;strokeColor=#ffffff;dashed=0;verticalLabelPosition=bottom;verticalAlign=top;align=center;html=1;fontSize=12;fontStyle=0;aspect=fixed;shape=mxgraph.aws4.resourceIcon;resIcon=mxgraph.aws4.ec2;" parent="SISaF7dtmsZQxDDT0848-9" vertex="1">
          <mxGeometry x="75.60901785714286" y="76.30267857142857" width="64.11996098710318" height="64.11996098710318" as="geometry" />
        </mxCell>
        <mxCell id="6UI8LHnn-1G5Px1je7Ly-3" value="&lt;span style=&quot;color: rgb(221, 53, 34); user-select: auto;&quot;&gt;(&lt;/span&gt;&lt;span style=&quot;user-select: auto;&quot;&gt;my_crypto_instance_sg&lt;/span&gt;&lt;span style=&quot;color: rgb(221, 53, 34); user-select: auto;&quot;&gt;)&lt;/span&gt;" style="text;html=1;resizable=0;autosize=1;align=center;verticalAlign=middle;points=[];fillColor=none;strokeColor=none;rounded=0;dashed=1;labelBackgroundColor=none;labelBorderColor=none;fontSize=14;fontColor=#000000;" parent="Ib_drEK7eYLLQow4bi6I-2" vertex="1">
          <mxGeometry x="167.99984229178898" y="514.9955437135415" width="174" height="29" as="geometry" />
        </mxCell>
        <mxCell id="6UI8LHnn-1G5Px1je7Ly-4" value="Bastion Host" style="text;html=1;align=center;verticalAlign=middle;resizable=0;points=[];autosize=1;strokeColor=none;fillColor=none;fontStyle=1;fontSize=13;" parent="Ib_drEK7eYLLQow4bi6I-2" vertex="1">
          <mxGeometry x="193.99754673840962" y="624.0020819422533" width="98" height="28" as="geometry" />
        </mxCell>
        <mxCell id="cjKQlwK5CmMycOytyYkd-12" style="edgeStyle=orthogonalEdgeStyle;rounded=0;orthogonalLoop=1;jettySize=auto;html=1;exitX=0;exitY=1;exitDx=0;exitDy=0;fontSize=13;strokeWidth=2;" edge="1" parent="SISaF7dtmsZQxDDT0848-38" source="Ib_drEK7eYLLQow4bi6I-3" target="cjKQlwK5CmMycOytyYkd-8">
          <mxGeometry relative="1" as="geometry" />
        </mxCell>
        <mxCell id="Ib_drEK7eYLLQow4bi6I-3" value="AZ ap-south-1a" style="fillColor=none;strokeColor=#147EBA;dashed=1;verticalAlign=top;fontStyle=0;fontColor=#147EBA;arcSize=12;" parent="SISaF7dtmsZQxDDT0848-38" vertex="1">
          <mxGeometry x="130" y="120" width="643" height="307.89" as="geometry" />
        </mxCell>
        <mxCell id="Ib_drEK7eYLLQow4bi6I-4" value="VPC" style="points=[[0,0],[0.25,0],[0.5,0],[0.75,0],[1,0],[1,0.25],[1,0.5],[1,0.75],[1,1],[0.75,1],[0.5,1],[0.25,1],[0,1],[0,0.75],[0,0.5],[0,0.25]];outlineConnect=0;gradientColor=none;html=1;whiteSpace=wrap;fontSize=12;fontStyle=0;container=1;pointerEvents=0;collapsible=0;recursiveResize=0;shape=mxgraph.aws4.group;grIcon=mxgraph.aws4.group_vpc;strokeColor=#248814;fillColor=none;verticalAlign=top;align=left;spacingLeft=30;fontColor=#AAB7B8;dashed=0;" parent="SISaF7dtmsZQxDDT0848-38" vertex="1">
          <mxGeometry x="94" y="66" width="710" height="750" as="geometry" />
        </mxCell>
        <mxCell id="Ib_drEK7eYLLQow4bi6I-6" value="Private subnet" style="points=[[0,0],[0.25,0],[0.5,0],[0.75,0],[1,0],[1,0.25],[1,0.5],[1,0.75],[1,1],[0.75,1],[0.5,1],[0.25,1],[0,1],[0,0.75],[0,0.5],[0,0.25]];outlineConnect=0;gradientColor=none;html=1;whiteSpace=wrap;fontSize=12;fontStyle=0;container=1;pointerEvents=0;collapsible=0;recursiveResize=0;shape=mxgraph.aws4.group;grIcon=mxgraph.aws4.group_security_group;grStroke=0;strokeColor=#147EBA;fillColor=#E6F2F8;verticalAlign=top;align=left;spacingLeft=30;fontColor=#147EBA;dashed=0;" parent="Ib_drEK7eYLLQow4bi6I-4" vertex="1">
          <mxGeometry x="400" y="97.78" width="224" height="225.22" as="geometry" />
        </mxCell>
        <mxCell id="SISaF7dtmsZQxDDT0848-13" value="Private subnet" style="points=[[0,0],[0.25,0],[0.5,0],[0.75,0],[1,0],[1,0.25],[1,0.5],[1,0.75],[1,1],[0.75,1],[0.5,1],[0.25,1],[0,1],[0,0.75],[0,0.5],[0,0.25]];outlineConnect=0;gradientColor=none;html=1;whiteSpace=wrap;fontSize=12;fontStyle=0;container=1;pointerEvents=0;collapsible=0;recursiveResize=0;shape=mxgraph.aws4.group;grIcon=mxgraph.aws4.group_security_group;grStroke=0;strokeColor=#147EBA;fillColor=#E6F2F8;verticalAlign=top;align=left;spacingLeft=30;fontColor=#147EBA;dashed=0;" parent="Ib_drEK7eYLLQow4bi6I-4" vertex="1">
          <mxGeometry x="399" y="445" width="223" height="223" as="geometry" />
        </mxCell>
        <mxCell id="SISaF7dtmsZQxDDT0848-82" value="Router" style="text;html=1;resizable=0;autosize=1;align=center;verticalAlign=middle;points=[];fillColor=#dae8fc;strokeColor=#6c8ebf;rounded=0;dashed=1;labelBackgroundColor=none;labelBorderColor=none;fontSize=17;fontStyle=1" parent="Ib_drEK7eYLLQow4bi6I-4" vertex="1">
          <mxGeometry x="-13" y="286.00500000000005" width="73" height="32" as="geometry" />
        </mxCell>
        <mxCell id="SISaF7dtmsZQxDDT0848-2" style="edgeStyle=orthogonalEdgeStyle;rounded=0;orthogonalLoop=1;jettySize=auto;html=1;exitX=0.5;exitY=1;exitDx=0;exitDy=0;arcSize=12;" parent="SISaF7dtmsZQxDDT0848-38" source="Ib_drEK7eYLLQow4bi6I-3" target="Ib_drEK7eYLLQow4bi6I-3" edge="1">
          <mxGeometry relative="1" as="geometry" />
        </mxCell>
        <mxCell id="SISaF7dtmsZQxDDT0848-5" value="" style="group" parent="SISaF7dtmsZQxDDT0848-38" vertex="1" connectable="0">
          <mxGeometry x="197" y="160" width="224" height="223" as="geometry" />
        </mxCell>
        <mxCell id="Ib_drEK7eYLLQow4bi6I-5" value="Public subnet" style="points=[[0,0],[0.25,0],[0.5,0],[0.75,0],[1,0],[1,0.25],[1,0.5],[1,0.75],[1,1],[0.75,1],[0.5,1],[0.25,1],[0,1],[0,0.75],[0,0.5],[0,0.25]];outlineConnect=0;gradientColor=none;html=1;whiteSpace=wrap;fontSize=12;fontStyle=0;container=0;pointerEvents=0;collapsible=0;recursiveResize=0;shape=mxgraph.aws4.group;grIcon=mxgraph.aws4.group_security_group;grStroke=0;strokeColor=#248814;fillColor=#E9F3E6;verticalAlign=top;align=left;spacingLeft=30;fontColor=#248814;dashed=0;" parent="SISaF7dtmsZQxDDT0848-5" vertex="1">
          <mxGeometry width="224.00000000000006" height="222.84128113879" as="geometry" />
        </mxCell>
        <mxCell id="Ib_drEK7eYLLQow4bi6I-52" value="Data Extract Server" style="text;html=1;align=center;verticalAlign=middle;resizable=0;points=[];autosize=1;strokeColor=none;fillColor=none;fontStyle=1;fontSize=13;" parent="SISaF7dtmsZQxDDT0848-5" vertex="1">
          <mxGeometry x="44.00251685393253" y="160.99943890865953" width="138" height="28" as="geometry" />
        </mxCell>
        <mxCell id="SISaF7dtmsZQxDDT0848-21" value="&lt;span style=&quot;color: rgb(221, 53, 34); user-select: auto;&quot;&gt;(&lt;/span&gt;&lt;span style=&quot;user-select: auto;&quot;&gt;my_crypto_instance_sg&lt;/span&gt;&lt;span style=&quot;color: rgb(221, 53, 34); user-select: auto;&quot;&gt;)&lt;/span&gt;" style="text;html=1;resizable=0;autosize=1;align=center;verticalAlign=middle;points=[];fillColor=none;strokeColor=none;rounded=0;dashed=1;labelBackgroundColor=none;labelBorderColor=none;fontSize=14;fontColor=#000000;" parent="SISaF7dtmsZQxDDT0848-5" vertex="1">
          <mxGeometry x="24.998898876404425" y="42.00349703440092" width="174" height="29" as="geometry" />
        </mxCell>
        <mxCell id="SISaF7dtmsZQxDDT0848-18" value="Security group" style="fillColor=none;strokeColor=#DD3522;verticalAlign=top;fontStyle=0;fontColor=#DD3522;dashed=1;labelBackgroundColor=none;labelBorderColor=none;fontSize=14;" parent="SISaF7dtmsZQxDDT0848-5" vertex="1">
          <mxGeometry x="11.139999999999986" y="23" width="203.72" height="171" as="geometry" />
        </mxCell>
        <mxCell id="SISaF7dtmsZQxDDT0848-37" value="AWS Instance Scheduler" style="text;resizable=0;autosize=1;align=center;verticalAlign=middle;points=[];fillColor=#e1d5e7;strokeColor=#9673a6;rounded=0;dashed=1;labelBackgroundColor=none;labelBorderColor=none;fontSize=15;fontStyle=1;" parent="SISaF7dtmsZQxDDT0848-38" vertex="1">
          <mxGeometry x="896.9974400185349" y="516.7010309278351" width="194" height="30" as="geometry" />
        </mxCell>
        <mxCell id="SISaF7dtmsZQxDDT0848-31" value="" style="sketch=0;outlineConnect=0;fontColor=#232F3E;gradientColor=none;fillColor=#4D27AA;strokeColor=none;dashed=0;verticalLabelPosition=bottom;verticalAlign=top;align=center;html=1;fontSize=12;fontStyle=0;aspect=fixed;pointerEvents=1;shape=mxgraph.aws4.route_table;labelBackgroundColor=none;labelBorderColor=none;" parent="SISaF7dtmsZQxDDT0848-38" vertex="1">
          <mxGeometry x="286.7" y="95.72809278350516" width="42.08" height="41" as="geometry" />
        </mxCell>
        <mxCell id="SISaF7dtmsZQxDDT0848-39" value="" style="sketch=0;outlineConnect=0;fontColor=#232F3E;gradientColor=none;fillColor=#4D27AA;strokeColor=none;dashed=0;verticalLabelPosition=bottom;verticalAlign=top;align=center;html=1;fontSize=12;fontStyle=0;aspect=fixed;pointerEvents=1;shape=mxgraph.aws4.route_table;labelBackgroundColor=none;labelBorderColor=none;" parent="SISaF7dtmsZQxDDT0848-38" vertex="1">
          <mxGeometry x="583" y="95.72809278350516" width="42.08" height="41" as="geometry" />
        </mxCell>
        <mxCell id="SISaF7dtmsZQxDDT0848-40" value="Internet Gateway" style="text;html=1;resizable=0;autosize=1;align=center;verticalAlign=middle;points=[];fillColor=#dae8fc;strokeColor=#6c8ebf;rounded=0;dashed=1;labelBackgroundColor=none;labelBorderColor=none;fontSize=17;fontStyle=1" parent="SISaF7dtmsZQxDDT0848-38" vertex="1">
          <mxGeometry x="-78" y="500.5541237113402" width="155" height="32" as="geometry" />
        </mxCell>
        <mxCell id="cjKQlwK5CmMycOytyYkd-17" style="edgeStyle=orthogonalEdgeStyle;rounded=0;orthogonalLoop=1;jettySize=auto;html=1;entryX=0;entryY=0.5;entryDx=0;entryDy=0;fontSize=13;strokeWidth=2;" edge="1" parent="SISaF7dtmsZQxDDT0848-38" source="SISaF7dtmsZQxDDT0848-32" target="SISaF7dtmsZQxDDT0848-18">
          <mxGeometry relative="1" as="geometry" />
        </mxCell>
        <mxCell id="SISaF7dtmsZQxDDT0848-32" value="" style="sketch=0;outlineConnect=0;fontColor=#232F3E;gradientColor=none;fillColor=#4D27AA;strokeColor=none;dashed=0;verticalLabelPosition=bottom;verticalAlign=top;align=center;html=1;fontSize=12;fontStyle=0;aspect=fixed;pointerEvents=1;shape=mxgraph.aws4.customer_gateway;labelBackgroundColor=none;labelBorderColor=none;" parent="SISaF7dtmsZQxDDT0848-38" vertex="1">
          <mxGeometry x="90.99858086771468" y="229.52350515463917" width="78" height="78" as="geometry" />
        </mxCell>
        <mxCell id="SISaF7dtmsZQxDDT0848-137" value="10.0.0.0/16 CIDR Block" style="shape=partialRectangle;html=1;whiteSpace=wrap;connectable=0;overflow=hidden;fillColor=#d5e8d4;top=0;left=0;bottom=0;right=0;pointerEvents=1;dashed=1;labelBackgroundColor=none;labelBorderColor=none;fontSize=17;strokeColor=#82b366;strokeWidth=2;" parent="SISaF7dtmsZQxDDT0848-38" vertex="1">
          <mxGeometry x="356" y="65.99999999999997" width="200" height="32" as="geometry">
            <mxRectangle width="200" height="32" as="alternateBounds" />
          </mxGeometry>
        </mxCell>
        <mxCell id="6UI8LHnn-1G5Px1je7Ly-6" value="&lt;span style=&quot;color: rgb(22, 25, 31); font-family: &amp;quot;Amazon Ember&amp;quot;, &amp;quot;Helvetica Neue&amp;quot;, Roboto, Arial, sans-serif; font-size: 14px; text-align: start; background-color: rgb(241, 250, 255);&quot;&gt;10.0.128.0/20&lt;/span&gt;" style="text;html=1;resizable=0;autosize=1;align=center;verticalAlign=middle;points=[];fillColor=none;strokeColor=none;rounded=0;" parent="SISaF7dtmsZQxDDT0848-38" vertex="1">
          <mxGeometry x="495" y="354" width="104" height="29" as="geometry" />
        </mxCell>
        <mxCell id="6UI8LHnn-1G5Px1je7Ly-8" value="&lt;span style=&quot;color: rgb(22, 25, 31); font-family: &amp;quot;Amazon Ember&amp;quot;, &amp;quot;Helvetica Neue&amp;quot;, Roboto, Arial, sans-serif; font-size: 14px; text-align: start; background-color: rgb(241, 250, 255); user-select: auto;&quot;&gt;10.0.144.0/20&lt;/span&gt;" style="text;html=1;resizable=0;autosize=1;align=center;verticalAlign=middle;points=[];fillColor=none;strokeColor=none;rounded=0;" parent="SISaF7dtmsZQxDDT0848-38" vertex="1">
          <mxGeometry x="495" y="704" width="106" height="29" as="geometry" />
        </mxCell>
        <mxCell id="Ib_drEK7eYLLQow4bi6I-7" value="" style="sketch=0;points=[[0,0,0],[0.25,0,0],[0.5,0,0],[0.75,0,0],[1,0,0],[0,1,0],[0.25,1,0],[0.5,1,0],[0.75,1,0],[1,1,0],[0,0.25,0],[0,0.5,0],[0,0.75,0],[1,0.25,0],[1,0.5,0],[1,0.75,0]];outlineConnect=0;fontColor=#232F3E;gradientColor=#F78E04;gradientDirection=north;fillColor=#D05C17;strokeColor=#ffffff;dashed=0;verticalLabelPosition=bottom;verticalAlign=top;align=center;html=1;fontSize=12;fontStyle=0;aspect=fixed;shape=mxgraph.aws4.resourceIcon;resIcon=mxgraph.aws4.ec2;" parent="SISaF7dtmsZQxDDT0848-38" vertex="1">
          <mxGeometry x="273.9491460674157" y="237.7139181494662" width="67.57488232893513" height="67.57488232893513" as="geometry" />
        </mxCell>
        <mxCell id="Ib_drEK7eYLLQow4bi6I-9" value="" style="sketch=0;points=[[0,0,0],[0.25,0,0],[0.5,0,0],[0.75,0,0],[1,0,0],[0,1,0],[0.25,1,0],[0.5,1,0],[0.75,1,0],[1,1,0],[0,0.25,0],[0,0.5,0],[0,0.75,0],[1,0.25,0],[1,0.5,0],[1,0.75,0]];outlineConnect=0;fontColor=#232F3E;gradientColor=#4D72F3;gradientDirection=north;fillColor=#3334B9;strokeColor=#ffffff;dashed=0;verticalLabelPosition=bottom;verticalAlign=top;align=center;html=1;fontSize=12;fontStyle=0;aspect=fixed;shape=mxgraph.aws4.resourceIcon;resIcon=mxgraph.aws4.rds;" parent="SISaF7dtmsZQxDDT0848-38" vertex="1">
          <mxGeometry x="570.47" y="240.38" width="67.14" height="67.14" as="geometry" />
        </mxCell>
        <mxCell id="6UI8LHnn-1G5Px1je7Ly-7" value="&lt;span style=&quot;color: rgb(22, 25, 31); font-family: &amp;quot;Amazon Ember&amp;quot;, &amp;quot;Helvetica Neue&amp;quot;, Roboto, Arial, sans-serif; font-size: 14px; text-align: start; background-color: rgb(241, 250, 255); user-select: auto;&quot;&gt;10.0.0.0/20&lt;/span&gt;" style="text;html=1;resizable=0;autosize=1;align=center;verticalAlign=middle;points=[];fillColor=none;strokeColor=none;rounded=0;" parent="SISaF7dtmsZQxDDT0848-38" vertex="1">
          <mxGeometry x="197.003682124423" y="354.00128820243185" width="90" height="29" as="geometry" />
        </mxCell>
        <mxCell id="Ib_drEK7eYLLQow4bi6I-53" value="Amazon RDS" style="text;html=1;align=center;verticalAlign=middle;resizable=0;points=[];autosize=1;strokeColor=none;fillColor=none;fontStyle=1;fontSize=13;" parent="SISaF7dtmsZQxDDT0848-38" vertex="1">
          <mxGeometry x="551.0045448022356" y="322.0000268699276" width="100" height="28" as="geometry" />
        </mxCell>
        <mxCell id="SISaF7dtmsZQxDDT0848-28" value="&lt;span style=&quot;color: rgb(221, 53, 34); user-select: auto;&quot;&gt;(&lt;/span&gt;&lt;span style=&quot;user-select: auto;&quot;&gt;my_crypto_db_inst_sg&lt;/span&gt;&lt;span style=&quot;color: rgb(221, 53, 34); user-select: auto;&quot;&gt;)&lt;/span&gt;" style="text;html=1;resizable=0;autosize=1;align=center;verticalAlign=middle;points=[];fillColor=none;strokeColor=none;rounded=0;dashed=1;labelBackgroundColor=none;labelBorderColor=none;fontSize=14;fontColor=#000000;" parent="SISaF7dtmsZQxDDT0848-38" vertex="1">
          <mxGeometry x="524.5010595867371" y="208.71731958762882" width="167" height="29" as="geometry" />
        </mxCell>
        <mxCell id="cjKQlwK5CmMycOytyYkd-4" value="Security group" style="fillColor=none;strokeColor=#DD3522;verticalAlign=top;fontStyle=0;fontColor=#DD3522;dashed=1;labelBackgroundColor=none;labelBorderColor=none;fontSize=14;" vertex="1" parent="SISaF7dtmsZQxDDT0848-38">
          <mxGeometry x="506.14" y="188.45" width="203.72" height="171" as="geometry" />
        </mxCell>
        <mxCell id="cjKQlwK5CmMycOytyYkd-19" style="edgeStyle=orthogonalEdgeStyle;rounded=0;orthogonalLoop=1;jettySize=auto;html=1;entryX=0;entryY=0.5;entryDx=0;entryDy=0;fontSize=13;strokeWidth=2;" edge="1" parent="SISaF7dtmsZQxDDT0848-38" source="6UI8LHnn-1G5Px1je7Ly-2" target="cjKQlwK5CmMycOytyYkd-4">
          <mxGeometry relative="1" as="geometry" />
        </mxCell>
        <mxCell id="6UI8LHnn-1G5Px1je7Ly-2" value="Security group" style="fillColor=none;strokeColor=#DD3522;verticalAlign=top;fontStyle=0;fontColor=#DD3522;dashed=1;labelBackgroundColor=none;labelBorderColor=none;fontSize=14;" parent="SISaF7dtmsZQxDDT0848-38" vertex="1">
          <mxGeometry x="212" y="534.9" width="186" height="171.1" as="geometry" />
        </mxCell>
        <mxCell id="cjKQlwK5CmMycOytyYkd-13" style="edgeStyle=orthogonalEdgeStyle;rounded=0;orthogonalLoop=1;jettySize=auto;html=1;fontSize=13;strokeWidth=2;" edge="1" parent="SISaF7dtmsZQxDDT0848-38" source="cjKQlwK5CmMycOytyYkd-8" target="6UI8LHnn-1G5Px1je7Ly-2">
          <mxGeometry relative="1" as="geometry" />
        </mxCell>
        <mxCell id="cjKQlwK5CmMycOytyYkd-8" value="" style="sketch=0;outlineConnect=0;fontColor=#232F3E;gradientColor=none;fillColor=#4D27AA;strokeColor=none;dashed=0;verticalLabelPosition=bottom;verticalAlign=top;align=center;html=1;fontSize=12;fontStyle=0;aspect=fixed;pointerEvents=1;shape=mxgraph.aws4.customer_gateway;labelBackgroundColor=none;labelBorderColor=none;" vertex="1" parent="SISaF7dtmsZQxDDT0848-38">
          <mxGeometry x="90.99858086771474" y="581.4535051546393" width="78" height="78" as="geometry" />
        </mxCell>
        <mxCell id="cjKQlwK5CmMycOytyYkd-18" style="edgeStyle=orthogonalEdgeStyle;rounded=0;orthogonalLoop=1;jettySize=auto;html=1;exitX=1;exitY=0.5;exitDx=0;exitDy=0;entryX=0.058;entryY=0.465;entryDx=0;entryDy=0;entryPerimeter=0;fontSize=13;strokeWidth=2;" edge="1" parent="SISaF7dtmsZQxDDT0848-38" source="SISaF7dtmsZQxDDT0848-18" target="cjKQlwK5CmMycOytyYkd-4">
          <mxGeometry relative="1" as="geometry" />
        </mxCell>
        <mxCell id="SISaF7dtmsZQxDDT0848-118" style="edgeStyle=orthogonalEdgeStyle;rounded=0;orthogonalLoop=1;jettySize=auto;html=1;fontSize=17;fontColor=#000000;" parent="1" source="SISaF7dtmsZQxDDT0848-97" target="SISaF7dtmsZQxDDT0848-31" edge="1">
          <mxGeometry relative="1" as="geometry" />
        </mxCell>
        <mxCell id="SISaF7dtmsZQxDDT0848-97" value="Route Table-1" style="shape=table;startSize=41;container=1;collapsible=0;childLayout=tableLayout;dashed=1;labelBackgroundColor=none;labelBorderColor=none;fontSize=17;strokeColor=#9673a6;strokeWidth=2;html=0;fillColor=#e1d5e7;" parent="1" vertex="1">
          <mxGeometry x="486" y="18.5" width="400" height="134" as="geometry" />
        </mxCell>
        <mxCell id="SISaF7dtmsZQxDDT0848-98" value="" style="shape=tableRow;horizontal=0;startSize=0;swimlaneHead=0;swimlaneBody=0;top=0;left=0;bottom=0;right=0;collapsible=0;dropTarget=0;fillColor=none;points=[[0,0.5],[1,0.5]];portConstraint=eastwest;dashed=1;labelBackgroundColor=none;labelBorderColor=none;fontSize=17;fontColor=#000000;strokeColor=default;strokeWidth=2;html=0;" parent="SISaF7dtmsZQxDDT0848-97" vertex="1">
          <mxGeometry y="41" width="400" height="32" as="geometry" />
        </mxCell>
        <mxCell id="SISaF7dtmsZQxDDT0848-99" value="Destination" style="shape=partialRectangle;html=1;whiteSpace=wrap;connectable=0;overflow=hidden;fillColor=#fff2cc;top=0;left=0;bottom=0;right=0;pointerEvents=1;dashed=1;labelBackgroundColor=none;labelBorderColor=none;fontSize=17;strokeColor=#d6b656;strokeWidth=2;" parent="SISaF7dtmsZQxDDT0848-98" vertex="1">
          <mxGeometry width="200" height="32" as="geometry">
            <mxRectangle width="200" height="32" as="alternateBounds" />
          </mxGeometry>
        </mxCell>
        <mxCell id="SISaF7dtmsZQxDDT0848-100" value="Target" style="shape=partialRectangle;html=1;whiteSpace=wrap;connectable=0;overflow=hidden;fillColor=#fff2cc;top=0;left=0;bottom=0;right=0;pointerEvents=1;dashed=1;labelBackgroundColor=none;labelBorderColor=none;fontSize=17;strokeColor=#d6b656;strokeWidth=2;" parent="SISaF7dtmsZQxDDT0848-98" vertex="1">
          <mxGeometry x="200" width="200" height="32" as="geometry">
            <mxRectangle width="200" height="32" as="alternateBounds" />
          </mxGeometry>
        </mxCell>
        <mxCell id="SISaF7dtmsZQxDDT0848-101" value="" style="shape=tableRow;horizontal=0;startSize=0;swimlaneHead=0;swimlaneBody=0;top=0;left=0;bottom=0;right=0;collapsible=0;dropTarget=0;fillColor=none;points=[[0,0.5],[1,0.5]];portConstraint=eastwest;dashed=1;labelBackgroundColor=none;labelBorderColor=none;fontSize=17;fontColor=#000000;strokeColor=default;strokeWidth=2;html=0;" parent="SISaF7dtmsZQxDDT0848-97" vertex="1">
          <mxGeometry y="73" width="400" height="29" as="geometry" />
        </mxCell>
        <mxCell id="SISaF7dtmsZQxDDT0848-102" value="0.0.0.0/0" style="shape=partialRectangle;html=1;whiteSpace=wrap;connectable=0;overflow=hidden;fillColor=#d5e8d4;top=0;left=0;bottom=0;right=0;pointerEvents=1;labelBackgroundColor=none;labelBorderColor=none;fontSize=17;strokeColor=#000000;strokeWidth=2;" parent="SISaF7dtmsZQxDDT0848-101" vertex="1">
          <mxGeometry width="200" height="29" as="geometry">
            <mxRectangle width="200" height="29" as="alternateBounds" />
          </mxGeometry>
        </mxCell>
        <mxCell id="SISaF7dtmsZQxDDT0848-103" value="igw-0609e42d653c8f217" style="shape=partialRectangle;html=1;whiteSpace=wrap;connectable=0;overflow=hidden;fillColor=#d5e8d4;top=0;left=0;bottom=0;right=0;pointerEvents=1;dashed=1;labelBackgroundColor=none;labelBorderColor=none;fontSize=17;strokeColor=#82b366;strokeWidth=2;" parent="SISaF7dtmsZQxDDT0848-101" vertex="1">
          <mxGeometry x="200" width="200" height="29" as="geometry">
            <mxRectangle width="200" height="29" as="alternateBounds" />
          </mxGeometry>
        </mxCell>
        <mxCell id="SISaF7dtmsZQxDDT0848-104" value="" style="shape=tableRow;horizontal=0;startSize=0;swimlaneHead=0;swimlaneBody=0;top=0;left=0;bottom=0;right=0;collapsible=0;dropTarget=0;fillColor=none;points=[[0,0.5],[1,0.5]];portConstraint=eastwest;dashed=1;labelBackgroundColor=none;labelBorderColor=none;fontSize=17;fontColor=#000000;strokeColor=default;strokeWidth=2;html=0;" parent="SISaF7dtmsZQxDDT0848-97" vertex="1">
          <mxGeometry y="102" width="400" height="32" as="geometry" />
        </mxCell>
        <mxCell id="SISaF7dtmsZQxDDT0848-105" value="10.0.0.0/16" style="shape=partialRectangle;html=1;whiteSpace=wrap;connectable=0;overflow=hidden;fillColor=#d5e8d4;top=0;left=0;bottom=0;right=0;pointerEvents=1;dashed=1;labelBackgroundColor=none;labelBorderColor=none;fontSize=17;strokeColor=#82b366;strokeWidth=2;" parent="SISaF7dtmsZQxDDT0848-104" vertex="1">
          <mxGeometry width="200" height="32" as="geometry">
            <mxRectangle width="200" height="32" as="alternateBounds" />
          </mxGeometry>
        </mxCell>
        <mxCell id="SISaF7dtmsZQxDDT0848-106" value="local" style="shape=partialRectangle;html=1;whiteSpace=wrap;connectable=0;overflow=hidden;fillColor=#d5e8d4;top=0;left=0;bottom=0;right=0;pointerEvents=1;dashed=1;labelBackgroundColor=none;labelBorderColor=none;fontSize=17;strokeColor=#82b366;strokeWidth=2;" parent="SISaF7dtmsZQxDDT0848-104" vertex="1">
          <mxGeometry x="200" width="200" height="32" as="geometry">
            <mxRectangle width="200" height="32" as="alternateBounds" />
          </mxGeometry>
        </mxCell>
        <mxCell id="SISaF7dtmsZQxDDT0848-119" style="edgeStyle=orthogonalEdgeStyle;rounded=0;orthogonalLoop=1;jettySize=auto;html=1;fontSize=17;fontColor=#000000;" parent="1" source="SISaF7dtmsZQxDDT0848-107" target="SISaF7dtmsZQxDDT0848-39" edge="1">
          <mxGeometry relative="1" as="geometry" />
        </mxCell>
        <mxCell id="SISaF7dtmsZQxDDT0848-107" value="Route Table-2" style="shape=table;startSize=41;container=1;collapsible=0;childLayout=tableLayout;dashed=1;labelBackgroundColor=none;labelBorderColor=none;fontSize=17;strokeColor=#9673a6;strokeWidth=2;html=0;fillColor=#e1d5e7;" parent="1" vertex="1">
          <mxGeometry x="943" y="18.5" width="332" height="119.5" as="geometry" />
        </mxCell>
        <mxCell id="SISaF7dtmsZQxDDT0848-108" value="" style="shape=tableRow;horizontal=0;startSize=0;swimlaneHead=0;swimlaneBody=0;top=0;left=0;bottom=0;right=0;collapsible=0;dropTarget=0;fillColor=none;points=[[0,0.5],[1,0.5]];portConstraint=eastwest;dashed=1;labelBackgroundColor=none;labelBorderColor=none;fontSize=17;fontColor=#000000;strokeColor=default;strokeWidth=2;html=0;" parent="SISaF7dtmsZQxDDT0848-107" vertex="1">
          <mxGeometry y="41" width="332" height="39" as="geometry" />
        </mxCell>
        <mxCell id="SISaF7dtmsZQxDDT0848-109" value="Destination" style="shape=partialRectangle;html=1;whiteSpace=wrap;connectable=0;overflow=hidden;fillColor=#fff2cc;top=0;left=0;bottom=0;right=0;pointerEvents=1;dashed=1;labelBackgroundColor=none;labelBorderColor=none;fontSize=17;strokeColor=#d6b656;strokeWidth=2;" parent="SISaF7dtmsZQxDDT0848-108" vertex="1">
          <mxGeometry width="166" height="39" as="geometry">
            <mxRectangle width="166" height="39" as="alternateBounds" />
          </mxGeometry>
        </mxCell>
        <mxCell id="SISaF7dtmsZQxDDT0848-110" value="Target" style="shape=partialRectangle;html=1;whiteSpace=wrap;connectable=0;overflow=hidden;fillColor=#fff2cc;top=0;left=0;bottom=0;right=0;pointerEvents=1;dashed=1;labelBackgroundColor=none;labelBorderColor=none;fontSize=17;strokeColor=#d6b656;strokeWidth=2;" parent="SISaF7dtmsZQxDDT0848-108" vertex="1">
          <mxGeometry x="166" width="166" height="39" as="geometry">
            <mxRectangle width="166" height="39" as="alternateBounds" />
          </mxGeometry>
        </mxCell>
        <mxCell id="SISaF7dtmsZQxDDT0848-114" value="" style="shape=tableRow;horizontal=0;startSize=0;swimlaneHead=0;swimlaneBody=0;top=0;left=0;bottom=0;right=0;collapsible=0;dropTarget=0;fillColor=none;points=[[0,0.5],[1,0.5]];portConstraint=eastwest;dashed=1;labelBackgroundColor=none;labelBorderColor=none;fontSize=17;fontColor=#000000;strokeColor=default;strokeWidth=2;html=0;" parent="SISaF7dtmsZQxDDT0848-107" vertex="1">
          <mxGeometry y="80" width="332" height="40" as="geometry" />
        </mxCell>
        <mxCell id="SISaF7dtmsZQxDDT0848-115" value="10.0.0.0/16" style="shape=partialRectangle;html=1;whiteSpace=wrap;connectable=0;overflow=hidden;fillColor=#d5e8d4;top=0;left=0;bottom=0;right=0;pointerEvents=1;dashed=1;labelBackgroundColor=none;labelBorderColor=none;fontSize=17;strokeColor=#82b366;strokeWidth=2;" parent="SISaF7dtmsZQxDDT0848-114" vertex="1">
          <mxGeometry width="166" height="40" as="geometry">
            <mxRectangle width="166" height="40" as="alternateBounds" />
          </mxGeometry>
        </mxCell>
        <mxCell id="SISaF7dtmsZQxDDT0848-116" value="local" style="shape=partialRectangle;html=1;whiteSpace=wrap;connectable=0;overflow=hidden;fillColor=#d5e8d4;top=0;left=0;bottom=0;right=0;pointerEvents=1;dashed=1;labelBackgroundColor=none;labelBorderColor=none;fontSize=17;strokeColor=#82b366;strokeWidth=2;" parent="SISaF7dtmsZQxDDT0848-114" vertex="1">
          <mxGeometry x="166" width="166" height="40" as="geometry">
            <mxRectangle width="166" height="40" as="alternateBounds" />
          </mxGeometry>
        </mxCell>
        <mxCell id="SISaF7dtmsZQxDDT0848-131" value="" style="edgeStyle=orthogonalEdgeStyle;html=1;endArrow=open;elbow=vertical;startArrow=open;startFill=0;endFill=0;strokeColor=#000000;rounded=0;fontSize=17;fontColor=#000000;strokeWidth=2;" parent="1" source="SISaF7dtmsZQxDDT0848-30" target="SISaF7dtmsZQxDDT0848-29" edge="1">
          <mxGeometry width="100" relative="1" as="geometry">
            <mxPoint x="200" y="631" as="sourcePoint" />
            <mxPoint x="300" y="631" as="targetPoint" />
          </mxGeometry>
        </mxCell>
      </root>
    </mxGraphModel>
  </diagram>
</mxfile>
